name C:\Users\u0101727\Documents\MyRepositories\upper-imu-dc\Results\main_tracking\Case_42\kinematics.mot
datacolumns 10
datarows 28
range 3.50000000 3.77000000
endheader 
time	clav_prot	clav_elev	scapula_abduction	scapula_elevation	scapula_upward_rot	scapula_winging	plane_elv	shoulder_elv	axial_rot	
          3.50000000	        -44.66830092	          9.07652354	          1.01716568	         -1.53077319	         84.95168669	        -11.82340099	         37.99878535	         88.48175826	         -7.44450737	
          3.51000000	        -44.67303236	          9.07449430	          1.00219517	         -1.53382495	         84.94198849	        -11.82779632	         38.02806170	         88.45718415	         -7.40466233	
          3.52000000	        -44.67663545	          9.07238744	          0.98879847	         -1.53689402	         84.93180126	        -11.83151795	         38.05697508	         88.43153022	         -7.36489219	
          3.53000000	        -44.67905298	          9.07010708	          0.97712219	         -1.54003600	         84.92115949	        -11.83449740	         38.08540121	         88.40479862	         -7.32508020	
          3.54000000	        -44.68022994	          9.06756371	          0.96729856	         -1.54330394	         84.91008567	        -11.83667151	         38.11325785	         88.37698795	         -7.28502387	
          3.55000000	        -44.68011659	          9.06468302	          0.95943697	         -1.54674275	         84.89858890	        -11.83798697	         38.14050653	         88.34809288	         -7.24445155	
          3.56000000	        -44.67867105	          9.06141415	          0.95361696	         -1.55038396	         84.88666406	        -11.83840426	         38.16715193	         88.31810406	         -7.20305570	
          3.57000000	        -44.67586076	          9.05773680	          0.94988403	         -1.55424101	         84.87429186	        -11.83790043	         38.19323842	         88.28700813	         -7.16053917	
          3.58000000	        -44.67166227	          9.05366650	          0.94824936	         -1.55830550	         84.86143977	        -11.83647015	         38.21884374	         88.25478798	         -7.11666823	
          3.59000000	        -44.66605940	          9.04925755	          0.94869354	         -1.56254485	         84.84806346	        -11.83412494	         38.24407081	         88.22142322	         -7.07132493	
          3.60000000	        -44.65904005	          9.04460295	          0.95117303	         -1.56690187	         84.83410846	        -11.83089087	         38.26903937	         88.18689086	         -7.02455231	
          3.61000000	        -44.65059320	          9.03983131	          0.95562715	         -1.57129642	         84.81951132	        -11.82680546	         38.29387984	         88.15116591	         -6.97658725	
          3.62000000	        -44.64070682	          9.03510151	          0.96198302	         -1.57562878	         84.80419994	        -11.82191506	         38.31873113	         88.11422179	         -6.92787762	
          3.63000000	        -44.62936755	          9.03059596	          0.97015721	         -1.57978434	         84.78809281	        -11.81627299	         38.34374289	         88.07603042	         -6.87908260	
          3.64000000	        -44.61656184	          9.02651317	          0.98005460	         -1.58363888	         84.77109756	        -11.80993864	         38.36908146	         88.03656171	         -6.83105673	
          3.65000000	        -44.60227771	          9.02305990	          0.99156577	         -1.58706425	         84.75310932	        -11.80297702	         38.39493781	         87.99578279	         -6.78481977	
          3.66000000	        -44.58650618	          9.02044318	          1.00456549	         -1.58993413	         84.73400917	        -11.79545779	         38.42153546	         87.95365713	         -6.74151524	
          3.67000000	        -44.56924104	          9.01886213	          1.01891413	         -1.59212969	         84.71366302	        -11.78745328	         38.44913648	         87.91014414	         -6.70236089	
          3.68000000	        -44.55047637	          9.01849994	          1.03446337	         -1.59354485	         84.69192106	        -11.77903477	         38.47804413	         87.86519957	         -6.66859404	
          3.69000000	        -44.53020165	          9.01951615	          1.05106613	         -1.59409116	         84.66861748	        -11.77026738	         38.50860202	         87.81877705	         -6.64141454	
          3.70000000	        -44.50839480	          9.02203955	          1.06858964	         -1.59370208	         84.64356973	        -11.76120374	         38.54119035	         87.77083146	         -6.62192848	
          3.71000000	        -44.48501353	          9.02616217	          1.08693030	         -1.59233649	         84.61657699	        -11.75187715	         38.57621977	         87.72132420	         -6.61109527	
          3.72000000	        -44.45998603	          9.03193492	          1.10602908	         -1.58998106	         84.58741799	        -11.74229478	         38.61412336	         87.67022991	         -6.60968083	
          3.73000000	        -44.43320204	          9.03936573	          1.12588570	         -1.58665102	         84.55584915	        -11.73243178	         38.65534710	         87.61754306	         -6.61821815	
          3.74000000	        -44.40450546	          9.04842031	          1.14657077	         -1.58238890	         84.52160416	        -11.72222698	         38.70033914	         87.56328280	         -6.63697670	
          3.75000000	        -44.37368890	          9.05902485	          1.16823581	         -1.57726205	         84.48439575	        -11.71157984	         38.74953797	         87.50749525	         -6.66594162	
          3.76000000	        -44.34048988	          9.07106882	          1.19112238	         -1.57135971	         84.44391998	        -11.70034824	         38.80335976	         87.45025286	         -6.70480438	
          3.77000000	        -44.30458850	          9.08440648	          1.21557081	         -1.56479092	         84.39986285	        -11.68834657	         38.86218525	         87.39165129	         -6.75296688	
